<svg width="400" height="114" viewBox="0 0 400 114" fill="none" xmlns="http://www.w3.org/2000/svg">
<g clip-path="url(#clip0_2305_114)">
<rect width="400" height="114" fill="white"/>
<g clip-path="url(#clip1_2305_114)">
<rect width="400" height="114" fill="#010706"/>
<path d="M73.518 18.3941C74.771 18.3941 75.7761 18.8055 76.5331 19.6283C77.2901 20.4383 77.6686 21.5568 77.6686 22.9838V29.2706H74.3403V23.4274C74.3403 22.7074 74.1511 22.1482 73.7726 21.7496C73.394 21.3511 72.885 21.1518 72.2454 21.1518C71.6059 21.1518 71.0969 21.3511 70.7183 21.7496C70.3398 22.1482 70.1506 22.7074 70.1506 23.4274V29.2706H66.8027V15H70.1506V19.9561C70.4899 19.4805 70.9533 19.1012 71.5406 18.8184C72.128 18.5355 72.7871 18.3941 73.518 18.3941Z" fill="#EAEAEA"/>
<path d="M86.0839 26.4743V29.2706H84.3806C83.1667 29.2706 82.2204 28.9813 81.5417 28.4028C80.863 27.8114 80.5237 26.8536 80.5237 25.5294V21.2482H79.1923V18.5098H80.5237V15.8871H83.8715V18.5098H86.0643V21.2482H83.8715V25.568C83.8715 25.8894 83.9499 26.1208 84.1065 26.2622C84.2631 26.4036 84.5241 26.4743 84.8896 26.4743H86.0839Z" fill="#EAEAEA"/>
<path d="M101.888 18.3941C103.246 18.3941 104.323 18.7991 105.119 19.609C105.928 20.419 106.333 21.5439 106.333 22.9838V29.2706H103.004V23.4274C103.004 22.7331 102.815 22.1996 102.437 21.8267C102.071 21.4411 101.562 21.2482 100.909 21.2482C100.257 21.2482 99.7413 21.4411 99.3628 21.8267C98.9973 22.1996 98.8146 22.7331 98.8146 23.4274V29.2706H95.4863V23.4274C95.4863 22.7331 95.2971 22.1996 94.9185 21.8267C94.5531 21.4411 94.0441 21.2482 93.3914 21.2482C92.7388 21.2482 92.2233 21.4411 91.8448 21.8267C91.4793 22.1996 91.2966 22.7331 91.2966 23.4274V29.2706H87.9487V18.5098H91.2966V19.8597C91.6359 19.4097 92.0797 19.0562 92.6279 18.7991C93.1761 18.5291 93.7961 18.3941 94.4878 18.3941C95.3101 18.3941 96.041 18.5677 96.6806 18.9148C97.3332 19.2619 97.8422 19.7569 98.2077 20.3997C98.5862 19.8083 99.1018 19.3262 99.7544 18.9533C100.407 18.5805 101.118 18.3941 101.888 18.3941Z" fill="#EAEAEA"/>
<path d="M112.022 15V29.2706H108.674V15H112.022Z" fill="#EAEAEA"/>
<path d="M116.014 29.4249C115.427 29.4249 114.944 29.2577 114.566 28.9235C114.2 28.5764 114.017 28.1521 114.017 27.6507C114.017 27.1364 114.2 26.7058 114.566 26.3586C114.944 26.0115 115.427 25.8379 116.014 25.8379C116.589 25.8379 117.059 26.0115 117.424 26.3586C117.803 26.7058 117.992 27.1364 117.992 27.6507C117.992 28.1521 117.803 28.5764 117.424 28.9235C117.059 29.2577 116.589 29.4249 116.014 29.4249Z" fill="#EAEAEA"/>
<path d="M72.8915 47.6874V50.4837H71.1882C69.9744 50.4837 69.0281 50.1944 68.3494 49.6159C67.6707 49.0245 67.3313 48.0667 67.3313 46.7425V42.4613H66V39.7229H67.3313V37.1002H70.6792V39.7229H72.872V42.4613H70.6792V46.781C70.6792 47.1024 70.7575 47.3339 70.9141 47.4753C71.0708 47.6167 71.3318 47.6874 71.6973 47.6874H72.8915Z" fill="#EAEAEA"/>
<path d="M79.7292 50.6379C78.6589 50.6379 77.6931 50.413 76.8316 49.963C75.9833 49.513 75.3111 48.8702 74.8151 48.0345C74.3322 47.1989 74.0907 46.2218 74.0907 45.1033C74.0907 43.9976 74.3387 43.027 74.8347 42.1913C75.3306 41.3428 76.0094 40.6935 76.8708 40.2435C77.7322 39.7936 78.6981 39.5686 79.7684 39.5686C80.8387 39.5686 81.8045 39.7936 82.666 40.2435C83.5274 40.6935 84.2061 41.3428 84.7021 42.1913C85.1981 43.027 85.4461 43.9976 85.4461 45.1033C85.4461 46.2089 85.1915 47.186 84.6825 48.0345C84.1865 48.8702 83.5013 49.513 82.6268 49.963C81.7654 50.413 80.7995 50.6379 79.7292 50.6379ZM79.7292 47.7838C80.3688 47.7838 80.9104 47.5524 81.3542 47.0896C81.811 46.6267 82.0394 45.9646 82.0394 45.1033C82.0394 44.2419 81.8176 43.5798 81.3738 43.117C80.9431 42.6541 80.4079 42.4227 79.7684 42.4227C79.1158 42.4227 78.5741 42.6541 78.1434 43.117C77.7127 43.5669 77.4973 44.229 77.4973 45.1033C77.4973 45.9646 77.7061 46.6267 78.1238 47.0896C78.5545 47.5524 79.0897 47.7838 79.7292 47.7838Z" fill="#EAEAEA"/>
<path d="M88.7884 50.6379C88.2011 50.6379 87.7182 50.4708 87.3396 50.1365C86.9742 49.7894 86.7914 49.3652 86.7914 48.8638C86.7914 48.3495 86.9742 47.9188 87.3396 47.5717C87.7182 47.2246 88.2011 47.051 88.7884 47.051C89.3627 47.051 89.8326 47.2246 90.1981 47.5717C90.5766 47.9188 90.7658 48.3495 90.7658 48.8638C90.7658 49.3652 90.5766 49.7894 90.1981 50.1365C89.8326 50.4708 89.3627 50.6379 88.7884 50.6379Z" fill="#EAEAEA"/>
<path d="M66.137 66.297C66.137 65.1914 66.3459 64.2207 66.7636 63.3851C67.1943 62.5494 67.7751 61.9066 68.506 61.4566C69.2369 61.0066 70.0527 60.7816 70.9533 60.7816C71.6712 60.7816 72.3238 60.9295 72.9111 61.2252C73.5115 61.5209 73.9814 61.9194 74.3207 62.4208V57.4261H77.6686V71.6967H74.3207V70.154C74.0075 70.6682 73.5572 71.0796 72.9698 71.3882C72.3955 71.6967 71.7234 71.851 70.9533 71.851C70.0527 71.851 69.2369 71.626 68.506 71.176C67.7751 70.7132 67.1943 70.064 66.7636 69.2283C66.3459 68.3798 66.137 67.4027 66.137 66.297ZM74.3207 66.3163C74.3207 65.4935 74.0858 64.8443 73.6159 64.3686C73.1591 63.8929 72.5979 63.6551 71.9322 63.6551C71.2665 63.6551 70.6988 63.8929 70.2289 64.3686C69.7721 64.8314 69.5437 65.4742 69.5437 66.297C69.5437 67.1199 69.7721 67.7755 70.2289 68.2641C70.6988 68.7398 71.2665 68.9776 71.9322 68.9776C72.5979 68.9776 73.1591 68.7398 73.6159 68.2641C74.0858 67.7884 74.3207 67.1391 74.3207 66.3163Z" fill="#EAEAEA"/>
<path d="M90.3888 66.1428C90.3888 66.4513 90.3692 66.7727 90.3301 67.107H82.7533C82.8055 67.7755 83.0209 68.2898 83.3994 68.6498C83.7909 68.9969 84.2673 69.1704 84.8286 69.1704C85.6639 69.1704 86.2447 68.8233 86.571 68.1291H90.1343C89.9515 68.8362 89.6187 69.4726 89.1358 70.0383C88.6659 70.6039 88.072 71.0475 87.3542 71.3689C86.6363 71.6903 85.8336 71.851 84.946 71.851C83.8758 71.851 82.923 71.626 82.0876 71.176C81.2523 70.7261 80.5997 70.0833 80.1298 69.2476C79.6599 68.4119 79.425 67.4348 79.425 66.3163C79.425 65.1978 79.6534 64.2207 80.1102 63.3851C80.5801 62.5494 81.2327 61.9066 82.0681 61.4566C82.9034 61.0066 83.8627 60.7816 84.946 60.7816C86.0033 60.7816 86.943 61.0002 87.7653 61.4373C88.5876 61.8744 89.2272 62.498 89.684 63.3079C90.1539 64.1179 90.3888 65.0628 90.3888 66.1428ZM86.9626 65.275C86.9626 64.7093 86.7668 64.2593 86.3753 63.925C85.9837 63.5908 85.4942 63.4236 84.9069 63.4236C84.3457 63.4236 83.8692 63.5843 83.4777 63.9058C83.0992 64.2272 82.8642 64.6836 82.7729 65.275H86.9626Z" fill="#EAEAEA"/>
<path d="M96.5992 71.851C95.6464 71.851 94.798 71.6903 94.054 71.3689C93.3101 71.0475 92.7227 70.6104 92.292 70.0575C91.8613 69.4919 91.6198 68.8619 91.5676 68.1677H94.8763C94.9155 68.5405 95.0917 68.8426 95.4049 69.074C95.7182 69.3054 96.1032 69.4212 96.5601 69.4212C96.9777 69.4212 97.2975 69.344 97.5194 69.1897C97.7543 69.0226 97.8718 68.8105 97.8718 68.5533C97.8718 68.2448 97.7086 68.0198 97.3823 67.8784C97.056 67.7241 96.5274 67.557 95.7965 67.377C95.0134 67.197 94.3608 67.0106 93.8387 66.8177C93.3166 66.612 92.8663 66.297 92.4878 65.8728C92.1093 65.4357 91.92 64.8507 91.92 64.1179C91.92 63.5008 92.0897 62.9415 92.4291 62.4401C92.7815 61.9259 93.2905 61.5209 93.9562 61.2252C94.6349 60.9295 95.4376 60.7816 96.3643 60.7816C97.7347 60.7816 98.8115 61.1159 99.5947 61.7844C100.391 62.453 100.848 63.3401 100.965 64.4457H97.8718C97.8196 64.0729 97.6499 63.7772 97.3628 63.5586C97.0887 63.3401 96.7232 63.2308 96.2664 63.2308C95.8748 63.2308 95.5746 63.3079 95.3658 63.4622C95.157 63.6036 95.0525 63.8029 95.0525 64.06C95.0525 64.3686 95.2157 64.6 95.542 64.7543C95.8813 64.9086 96.4034 65.0628 97.1082 65.2171C97.9175 65.4228 98.5766 65.6285 99.0856 65.8342C99.5947 66.0271 100.038 66.3485 100.417 66.7984C100.809 67.2356 101.011 67.827 101.024 68.5726C101.024 69.2026 100.841 69.7683 100.476 70.2697C100.123 70.7582 99.6077 71.1439 98.929 71.4267C98.2634 71.7096 97.4868 71.851 96.5992 71.851Z" fill="#EAEAEA"/>
<path d="M104.756 59.8174C104.168 59.8174 103.686 59.6503 103.307 59.316C102.942 58.9689 102.759 58.5446 102.759 58.0432C102.759 57.529 102.942 57.1047 103.307 56.7705C103.686 56.4233 104.168 56.2498 104.756 56.2498C105.33 56.2498 105.8 56.4233 106.165 56.7705C106.544 57.1047 106.733 57.529 106.733 58.0432C106.733 58.5446 106.544 58.9689 106.165 59.316C105.8 59.6503 105.33 59.8174 104.756 59.8174ZM106.42 60.9359V71.6967H103.072V60.9359H106.42Z" fill="#EAEAEA"/>
<path d="M112.997 60.7816C113.767 60.7816 114.439 60.9359 115.013 61.2445C115.601 61.553 116.051 61.958 116.364 62.4594V60.9359H119.712V71.6774C119.712 72.6674 119.51 73.5609 119.105 74.358C118.714 75.168 118.107 75.8108 117.284 76.2865C116.475 76.7622 115.464 77 114.25 77C112.631 77 111.32 76.6207 110.315 75.8622C109.309 75.1165 108.735 74.1009 108.592 72.8152H111.9C112.005 73.2266 112.253 73.5481 112.644 73.7795C113.036 74.0237 113.519 74.1459 114.093 74.1459C114.785 74.1459 115.333 73.9466 115.738 73.5481C116.155 73.1624 116.364 72.5388 116.364 71.6774V70.154C116.038 70.6554 115.588 71.0668 115.013 71.3882C114.439 71.6967 113.767 71.851 112.997 71.851C112.096 71.851 111.28 71.626 110.549 71.176C109.819 70.7132 109.238 70.064 108.807 69.2283C108.389 68.3798 108.18 67.4027 108.18 66.297C108.18 65.1914 108.389 64.2207 108.807 63.3851C109.238 62.5494 109.819 61.9066 110.549 61.4566C111.28 61.0066 112.096 60.7816 112.997 60.7816ZM116.364 66.3163C116.364 65.4935 116.129 64.8443 115.659 64.3686C115.203 63.8929 114.641 63.6551 113.976 63.6551C113.31 63.6551 112.742 63.8929 112.272 64.3686C111.816 64.8314 111.587 65.4742 111.587 66.297C111.587 67.1199 111.816 67.7755 112.272 68.2641C112.742 68.7398 113.31 68.9776 113.976 68.9776C114.641 68.9776 115.203 68.7398 115.659 68.2641C116.129 67.7884 116.364 67.1391 116.364 66.3163Z" fill="#EAEAEA"/>
<path d="M128.791 60.8202C130.07 60.8202 131.088 61.2316 131.845 62.0544C132.615 62.8644 133 63.9829 133 65.41V71.6967H129.672V65.8535C129.672 65.1335 129.482 64.5743 129.104 64.1757C128.725 63.7772 128.216 63.5779 127.577 63.5779C126.937 63.5779 126.428 63.7772 126.05 64.1757C125.671 64.5743 125.482 65.1335 125.482 65.8535V71.6967H122.134V60.9359H125.482V62.363C125.821 61.8873 126.278 61.5145 126.852 61.2445C127.427 60.9616 128.073 60.8202 128.791 60.8202Z" fill="#EAEAEA"/>
<path d="M50 65H0V86H50V65Z" fill="#EAEAEA"/>
<path d="M50 92H0V114H50V92Z" fill="#1ABCFE"/>
<path d="M33 0H0V59H33V0Z" fill="#F24E1E"/>
<path d="M50 0H39V59H50V0Z" fill="#EAEAEA"/>
<path d="M400 92H297V114H400V92Z" fill="#0ACF83"/>
<path d="M291 92H56V114H291V92Z" fill="#EAEAEA"/>
</g>
</g>
<defs>
<clipPath id="clip0_2305_114">
<rect width="400" height="114" fill="white"/>
</clipPath>
<clipPath id="clip1_2305_114">
<rect width="400" height="114" fill="white"/>
</clipPath>
</defs>
</svg>
