<svg width="69" height="27" viewBox="0 0 69 27" fill="none" xmlns="http://www.w3.org/2000/svg"><path d="M52.6 0H51v1.6h1.6V0ZM48.9 0v9.7h-1.6v-.9c-.3.4-.6.6-1 .8-.4.2-.9.2-1.3.2-.7 0-1.3-.1-1.9-.4-.5-.3-1-.7-1.2-1.3-.3-.6-.5-1.2-.5-1.9 0-.6.2-1.3.5-1.8.3-.6.7-1 1.2-1.3a3.7 3.7 0 0 1 3.1-.2c.4.1.8.4 1 .7V0H49Zm-3.7 8.4c.3 0 .7 0 1-.2l.8-.8c.2-.4.3-.8.2-1.2 0-.4 0-.8-.2-1.1l-.8-.8a2.2 2.2 0 0 0-2.1 0l-.8.8-.2 1.1c0 .4 0 .8.2 1.2a2 2 0 0 0 1.9 1ZM51 2.7h1.6v7H51v-7Zm10.4 0-3 7h-1.7l-3-7h1.7L57.5 8l2.3-5.2h1.6Z" fill="white"/><path fill-rule="evenodd" clip-rule="evenodd" d="m63.7.1 4.5 4.5a1.3 1.3 0 0 1 0 1.8l-4.5 4.5-1-1 4.5-4.4-4.4-4.4.9-1Zm3.5 5.4Zm0 0ZM34.1 5 38.6.7l.8.8-4.5 4.4V6l4.5 4.5-.8.8-4.5-4.5a1.2 1.2 0 0 1 0-1.6Z" fill="white"/><path d="M39.1 9.2h-1.4c-.2 0-.3.2-.3.3V11c0 .2.1.3.3.3h1.4c.2 0 .3 0 .3-.3V9.5c0-.1-.1-.3-.3-.3ZM39.1.6h-1.4c-.2 0-.3.1-.3.3v1.4c0 .2.1.3.3.3h1.4c.2 0 .3-.1.3-.3V.9c0-.2-.1-.3-.3-.3ZM35 5h-1.3c-.2 0-.3 0-.3.2v1.4c0 .2.1.3.3.3H35c.2 0 .3-.1.3-.3V5.2c0-.1-.1-.3-.3-.3ZM35 23.2Zm.1 0 .1.2a4.3 4.3 0 0 1-.1.6v-.6H35c0 .1 0 .1 0 0h.1a.1.1 0 0 1 0-.2Zm.2.7v.1Zm5.6 1.8Zm-5.6-2.2v.2-.2Zm5.6 1.2.7.9h-.1a1.4 1.4 0 0 1-.3-.3v-.1L41 25l-.2-.2v-.1h-.1v.1l.1.1a2.9 2.9 0 0 1 .3.4l.2.1v.2H41a5.9 5.9 0 0 0-.7-.8l.2.3.1.2v.2h.1l.1.2h.1v.2l-.2.1-.1.1a1 1 0 0 1-.3.2h-.2l-.3-.3-.4-.4a17.7 17.7 0 0 1-1.1-1.3l-.2-.3a8.4 8.4 0 0 0-.7-.7 115.1 115.1 0 0 0-1-1.4l-.2-.2-.1-.2v-.1l-.2-.2h-.2v.2a18.7 18.7 0 0 0-.3 1.2v.5l-.1-.2a5.5 5.5 0 0 1 .1-1V21.7 22l-.1.3a3.4 3.4 0 0 1-.1.5v.2H35v.1-.1.2L35 23V22.7a.2.2 0 0 0 0-.2v-.3l.1-.2v-.2H35s-.1 0 0 0l-.1.1V22.3s0 .1 0 0v.2l-.1.1a.1.1 0 0 1 0 .2c-.1 0-.1 0 0 0v.3l-.1.2V23h-.1v.2l.1.1c0 .1 0 .1-.1 0v.6h-.1v-.5h-.1l-.1.1.1.1a1.3 1.3 0 0 0 0 .3h-.1l-.3.1h-.4v-.2a17.8 17.8 0 0 0 .1-1.3v-.2A17 17 0 0 0 34 21l-.2-.1v-.1l-.2-.2a.1.1 0 0 1 0-.2h.2l.3-.2.1-.3a17.7 17.7 0 0 0 .3-1.5l.1-1 .2-.8-.1-.1v-.1h-.1l-.1-.2-.2-.1a2 2 0 0 1-.5-.4 4 4 0 0 1-.3-.3.2.2 0 0 1 0-.2l.3-.2.5-.4a5.7 5.7 0 0 1 1.3-.5 8.8 8.8 0 0 1 2.5-.3l.6.2c.2 0 .3.2.5.3l.4.3a9.5 9.5 0 0 1 1.3 1.7l.1.4c0 .5-.1 1-.5 1.4-.3.4-.8 1-1.5 1.4l-.2.2-.4.2-.3.2h-.2a8.2 8.2 0 0 0-.3.3v.1l.2.2.3.3.2.3.3.4.3.4.4.5a24.6 24.6 0 0 1 1.7 2Zm-6.4-8.4Zm-.1 6.7h-.1Zm.1.3v-.2.2c0 .1 0 0 0 0Zm0-.4h.1c-.1 0 0 0 0 0Zm.7-.4Zm0-.4v.1s0 .1 0 0Zm.1-.2v-.1c0-.1 0 0 0 0Zm.2-3.4v.1c0-.1 0-.1 0 0Zm0 .6V19Zm0 2.5.1-.1Zm.2-3.2h-.1v.1Zm.2 2.8Zm2.1-1.8v.1Zm-1.2-.6c1-.6 1.7-1.1 2-1.6.5-.5.7-1 .7-1.4v-.3l-.5-.2a5.2 5.2 0 0 0-2.1.3v.3l-.2.5v.5l-.2.6-.1.6-.1.5-.1.4v.2l.6-.4Zm3 5.4-.1-.1-.1-.1-.1-.1a.2.2 0 0 1 .1.2l.1.1Zm.5.6-.1-.2a2.6 2.6 0 0 0-.4-.3.9.9 0 0 0 .2.3h.1l.1.2h.1Zm.1-.5v-.1h-.2V24l.2.2Zm.7 1.3Zm-.5-1.1-.1-.1v.1Zm.8 0V24 24.5Zm1.1-1.1Zm-.8 1.6Zm2.7-9v.8l-.1.5-.1.5a189 189 0 0 1-.3 1.8v.5a97.6 97.6 0 0 0-.3 1.7v.1c-.1 0-.1 0 0 0h-.2V22.3h-.1v.4l-.1.2v-.4H43v.2H43V22.3h.2v-.1H43V21.9c0-.1 0-.1 0 0V20.6v.1s0 .1 0 0v.2s-.1 0 0 .1H43v.2c-.1 0-.1 0 0 0v.1h-.1a.1.1 0 0 0 0 .2v.2s0 .1 0 0V22.2l-.1.1s0 .1 0 0h-.1v.1h-.1V22v.5h-.1a.1.1 0 0 0 0 .2v.2l-.1.3v.3h-.1c-.1 0-.1 0 0 0a.2.2 0 0 0-.2.2h.1V24v-.2l-.1.1v.5H42v.4c-.1 0-.1 0 0 0h-.2l-.2.1a.1.1 0 0 1-.1 0v-.1s0-.1 0 0v-1.3c.1 0 .1 0 0 0h.1v-1.1l.1-.1a5.3 5.3 0 0 1 .1-1.1V21a10.2 10.2 0 0 1 .2-.8v-.8l.2-.5a49.3 49.3 0 0 1 .3-2.3l.1-.6a4 4 0 0 1 .1-.5h.7l.1.1h.2v.1h.5l.1.1v.3Zm-2.8 7.7v-.1.1Zm.1-1Zm0-.3Zm.4-.3Zm.2.3c.1 0 .1 0 0 0Zm.2-1.1Zm0 .2h-.1Zm.2 0Zm0 .1h.1Zm.5-1.1v.1-.4.2Zm0 1.3Zm0-.2Zm0-1.5Zm0-.1v-.1c0-.1 0 0 0 0Zm.3 1.1v.1Zm-.2-1.7v.1-.1Zm0 .3Zm.2 1.6v.1c-.1.1-.1.1 0 .1v.2h-.1v.1a.1.1 0 0 0 .1 0v-.1a.6.6 0 0 0 0-.3Zm0 0Zm0-.3h.1a.1.1 0 0 0 0-.2v.2Zm.2-.3h-.1v.1Zm.1-1.2v.1Zm-.3 2.5v.4-.1a.1.1 0 0 1 0-.1V22Zm-1 1.5c0-.1 0 0 0 0Zm.6-.6v.1Zm-.6.2h.1-.1Zm0 .5Zm1-1Zm-.6.8v.2-.2Zm.1.6Zm0-1V22.7 23Zm.1.1V23.7 23Zm.3-.2Zm-.5.3Zm-.3-.4v.1-.1Zm-.4 1.3c.1 0 .1 0 0 0 0 .1 0 0 0 0Zm0 .4a.1.1 0 0 1 0 .1v.1H42v-.2Zm.5-2.1V22.7h-.1V22.3Zm-.6 2.4v.1s0-.1 0 0Zm.1-.6v.1Zm11.2-8c.4.4.6 1 .7 1.6 0 .6 0 1.2-.3 2a7 7 0 0 1-1 2 4.6 4.6 0 0 1-1.8 1.6h-.3c0 .1 0 .2-.2.2a3 3 0 0 1-1.4.2 115.7 115.7 0 0 1-2.3-.6 2.5 2.5 0 0 1-.6-.6l-.2-.4-.2-.4-.1-.4v-.2l-.1-.3v-.6c0-.5 0-1 .2-1.6A8.4 8.4 0 0 1 47 16a4.6 4.6 0 0 1 1.9-1.5l.8-.2h.4l.2.1.2.1a5.1 5.1 0 0 0 1.1.4c.3 0 .7.2 1 .4l.7 1Zm-6.5 4V20c0 .1 0 .1 0 0Zm0-.4Zm.4.1Zm5-2.2v-.3l-.1-.3a1.4 1.4 0 0 0-.2-.6v-.1l-.3-.5c0-.2-.2-.3-.3-.5l-.2-.2H51c-.3 0-.7.2-1.1.5a5.3 5.3 0 0 0-1.5 1.7l-.3.6c-.3.7-.6 1.6-.6 2.4 0 .8 0 1.4.3 2l.1.2.2.2.1.2H48.8l.1-.1.2-.1.3-.2.3-.2.2-.2a5.3 5.3 0 0 0 1.7-2.2l.5-1.2.1-1Zm.6 2.6Zm0-.1a.1.1 0 0 0 .1-.1Zm.3-.7v-.1c0 .1 0 .1 0 0Zm.2-.6v-.1.3h-.1v.2-.1l.1-.3Zm0-.3a1 1 0 0 0 0-.4v.4Zm.5.3v-.2.2Zm7.9-4.1Zm-1 .2h.1-.1Zm.7-.3a.1.1 0 0 0 0 .1H61.2h.1l.1-.1h.1Zm-.3-.3v-.1a.1.1 0 0 1 .2 0h-.1c0 .1 0 0 0 0Zm0 .3H61 61.3Zm-.2.1v.1h-.7v.1h.4l-.1.1h-.3a7.7 7.7 0 0 0-1 .2l-.1.3-.1.6-.1.4v.5l-.1.5v.4a15.3 15.3 0 0 0-.3 1.5v.5l-.2.7v.6a40.8 40.8 0 0 1-.4 2.3l-.1.5a14.4 14.4 0 0 1-.3 1.2.2.2 0 0 1-.1 0c0 .1 0 .1 0 0-.1.1-.2.1-.2 0h-1.1l-.1-.1V23.9l.1-1 .2-1.1.2-1.3a15.1 15.1 0 0 0 .3-1.4v-.7l.2-.8a47.1 47.1 0 0 0 .3-1.5v-.5H57a14.4 14.4 0 0 1-1.3.2 11.8 11.8 0 0 0-1.5.2h.1v-.1a.2.2 0 0 1 0-.2h-.1v-.3l-.2-.1a5.5 5.5 0 0 1-.2-.6l.1-.1.3-.2h.6l.8-.2.8-.1.7-.1h.2a18.8 18.8 0 0 1 1.8-.3 14.6 14.6 0 0 1 1.7-.1h.7v.7h-.4v.1h-.5l-.2.1h-.7v.1a.1.1 0 0 0-.2 0h-.2v.1h1.3v.1l.2-.1h.1v.1Zm-.5-.5h-.2v.1h.7a.1.1 0 0 0 0-.1h-.5Zm-2.7 7-.1.1v.1-.1ZM58 19c0-.1 0-.1 0 0Zm0-.3c0-.1 0-.1 0 0Zm1.5-3.6c-.1 0-.1 0 0 0Zm0 0h.1Zm.3 0h-.1Zm.2 0s.1 0 0-.1h-.2.2Zm.3-.3Zm.4 0Zm7.6-.5a.3.3 0 0 1 .1.1v.3l-.2.6-.2.6-.2.6v.4l-.1.2V17.4h-.1v.5l-.1.1a.1.1 0 0 0-.1-.2c0 .1 0 .2-.1.1l-.1-.2c0 .1-.1.1-.1 0v-.4.1c0 .2-.1.3-.2.2h-.4l-.2-.2h-.2l-.2-.1a2 2 0 0 1 0-.6V16.4a8.6 8.6 0 0 0 .2-.5v-.1a.1.1 0 0 0 0-.1H66v-.1H65.6c-.4.2-.9.3-1.3.6l-.4.2-.5.4-.3.3-.4.4a3.5 3.5 0 0 0-.4.6h.4l.7.2 1 .3h.3l.3.3a4.2 4.2 0 0 1 .8.7l.2.2.3.3.5.6.2.6v.7l-.5.8a4.3 4.3 0 0 1-1.3 1.4 3.8 3.8 0 0 1-1.8.6 1.7 1.7 0 0 1-1.3 0 1 1 0 0 1-.3-.3l-.3-.3a3 3 0 0 0-.3-.3 8 8 0 0 0-.5-.4v-.6l.2.2.3.3H62.6l.2-.1h.1l.2-.1h.1l.1-.1.4-.2c.2 0 .4-.2.5-.3a4.8 4.8 0 0 0 1-1c.2-.1.2-.3.3-.4a2.5 2.5 0 0 0 .3-.8v-.2l-.2-.1-.2-.1a3.1 3.1 0 0 0-.6-.2 19.8 19.8 0 0 1-2-.4l-.2-.2a1.9 1.9 0 0 1-.5-.4l-.3-.3-.3-.4-.5-.5V17l.2-.3c0-.2.2-.3.3-.5a9.4 9.4 0 0 1 1.4-1.2 5 5 0 0 1 3.4-.8H66.6l.2-.3c0-.1 0-.2.2-.3v-.1H67.4l.1.2.2.1v.1h.2l.1.1v.1c0 .1.1.1.1 0h.1l.3.2Zm-5.8 2.5Zm4.7.2v-.1l-.1.1H67v.2h.1V17Zm0-.4v-.1.1Zm0-.3.1-.1v.1Zm1.1-1.8v-.1Zm-23.6-.9a15.7 15.7 0 0 1-.4 1.4H44s-.1-.1-.2 0h-.2a2.5 2.5 0 0 1-.6-.2H43l-.1-.8v-.7h.4l.6.1h.2l.6.1v.1" fill="white"/><path d="M.5 8V3.7h.7l1.5 3.4 1.5-3.4H5V8h-.7V5L3 8h-.5L1.2 5v3H.5Zm5.2-1.7c0-1 .7-1.8 1.6-1.8.5 0 1 .3 1.1.6v-.5h.8V8h-.8v-.5c-.2.3-.6.6-1.1.6-1 0-1.6-.8-1.6-1.8Zm2.7 0c0-.7-.5-1.1-1-1.1s-1 .4-1 1c0 .8.5 1.2 1 1.2s1-.4 1-1.1Zm1.4 0c0-1 .7-1.8 1.6-1.8.5 0 1 .3 1.2.6V3.4h.7V8h-.7v-.5c-.2.3-.6.6-1.2.6-.9 0-1.6-.8-1.6-1.8Zm2.8 0c0-.7-.5-1.1-1-1.1s-1 .4-1 1c0 .8.5 1.2 1 1.2s1-.4 1-1.1Zm3-1.2c-.4 0-.8.4-.8.9h1.8c0-.5-.4-.9-1-.9ZM17.4 7c-.2.6-.8 1-1.6 1-1 0-1.7-.6-1.7-1.7 0-1 .7-1.8 1.7-1.8s1.7.7 1.7 1.7v.4h-2.7c.1.5.5.9 1 .9.4 0 .7-.2.8-.5h.8Zm3-1.9c.3-.3.7-.6 1.2-.6 1 0 1.6.7 1.6 1.8 0 1-.7 1.8-1.6 1.8-.5 0-1-.3-1.1-.6V8h-.7V3.4h.7v1.7Zm2.1 1.2c0-.7-.5-1.1-1-1.1s-1 .4-1 1.1c0 .7.5 1.1 1 1.1s1-.4 1-1.1Zm2.8.9 1-2.6h.7l-2 5H24l.7-1.7-1.4-3.3h.8l1 2.6Z" fill="white" fill-opacity=".7"/></svg>